<?xml version="1.0" encoding="utf-8"?>
<!-- Generator: Adobe Illustrator 22.0.2, SVG Export Plug-In . SVG Version: 6.00 Build 0)  -->
<svg version="1.1" id="レイヤー_1" xmlns="http://www.w3.org/2000/svg" xmlns:xlink="http://www.w3.org/1999/xlink" x="0px"
	 y="0px" viewBox="0 0 530.5 521.5" style="enable-background:new 0 0 530.5 521.5;" xml:space="preserve">
<style type="text/css">
	.st0{display:none;fill:none;stroke:#D1D1D1;stroke-width:7;stroke-miterlimit:10;}
	.st1{display:none;fill:none;stroke:#5A91B7;stroke-width:11;stroke-miterlimit:10;}
	.st2{display:none;fill:#5A91B7;}
	.st3{font-family:'KozGoPr6N-Regular-90ms-RKSJ-H';}
	.st4{font-size:228.4608px;}
	.st5{fill:none;stroke:#D1D1D1;stroke-width:7;stroke-miterlimit:10;}
	.st6{fill:none;stroke:#FF7E1B;stroke-width:11;stroke-linecap:round;stroke-miterlimit:10;}
	.st7{fill:#B25E5B;}
	.st8{fill:#3DC7FF;}
	.st9{fill:#FF7E1B;}
	.st10{display:none;fill:none;stroke:#3DC7FF;stroke-width:11;stroke-linecap:round;stroke-miterlimit:10;}
	.st11{display:none;}
	.st12{display:inline;}
	.st13{fill:#4072FF;}
</style>
<path class="st0" d="M238.3,506.8C115.4,492.6,20,388.2,20,261.5c0-136.4,110.6-247,247-247s247,110.6,247,247s-110.6,247-247,247
	C257.3,508.5,247.7,507.9,238.3,506.8"/>
<path class="st1" d="M246,506.5c0,0,18,1.7,24,2c136.3,5.7,247-110.6,247-247s-110.6-247-247-247"/>
<text transform="matrix(1 0 0 1 88.5556 347.0484)" class="st2 st3 st4">Cdr</text>
<path class="st5" d="M239.9,506.1C117,491.8,21.6,387.4,21.6,260.7c0-136.4,110.6-247,247-247s247,110.6,247,247s-110.6,247-247,247
	C258.9,507.7,249.3,507.2,239.9,506.1"/>
<path class="st6" d="M514.5,259.5c0-136.4-110.6-247-247-247"/>
<g>
	<g>
		<g>
			<path class="st7" d="M174.9,377.8c-2.1,0-4.1-0.6-5.9-1.7c-1.9-1.1-2.8-2.9-2.8-5.1c0-0.8,0.1-1.5,0.3-1.9l66.8-215.6
				c1.2-3.7,4.2-5.6,8.7-5.6c1.9,0,3.6,0.5,5.3,1.4c1.7,0.9,2.8,2.3,3.4,4.2L316.8,369c0,0.4,0,0.7,0.2,0.9c0.1,0.2,0.2,0.5,0.2,0.9
				c0,1.9-0.9,3.5-2.8,4.8c-1.9,1.4-4,2-6.2,2c-3.3,0-5.4-1.6-6.2-4.7l-15.3-49.6h-89.9l-15,49.6
				C180.7,376.2,178.4,377.8,174.9,377.8z M282.2,309.1l-40.2-133.2l-41.2,133.2H282.2z"/>
			<path class="st7" d="M368,161.5c3.1,0,5.8,1.1,8.1,3.3c2.3,2.2,3.4,4.7,3.4,7.6c0,3.1-1.1,5.8-3.4,8.1c-2.3,2.3-5,3.4-8.1,3.4
				c-3.5,0-6.4-1.1-8.6-3.4c-2.2-2.3-3.3-5-3.3-8.1c0-2.9,1.1-5.5,3.3-7.6S364.5,161.5,368,161.5z M368,230.5c2.3,0,4.2,0.6,5.6,1.7
				c1.5,1.1,2.2,2.7,2.2,4.5v134.2c0,1.7-0.7,3.2-2.2,4.7c-1.5,1.5-3.3,2.2-5.6,2.2c-2.3,0-4.1-0.7-5.5-2.2c-1.4-1.5-2-3-2-4.7
				V236.7c0-1.9,0.7-3.4,2-4.5C363.9,231.1,365.7,230.5,368,230.5z"/>
		</g>
		<g>
			<path class="st7" d="M165.9,370.8c-2.1,0-4.1-0.6-5.9-1.7c-1.9-1.1-2.8-2.9-2.8-5.1c0-0.8,0.1-1.5,0.3-1.9l66.8-215.6
				c1.2-3.7,4.2-5.6,8.7-5.6c1.9,0,3.6,0.5,5.3,1.4c1.7,0.9,2.8,2.3,3.4,4.2L307.8,362c0,0.4,0,0.7,0.2,0.9c0.1,0.2,0.2,0.5,0.2,0.9
				c0,1.9-0.9,3.5-2.8,4.8c-1.9,1.4-4,2-6.2,2c-3.3,0-5.4-1.6-6.2-4.7l-15.3-49.6h-89.9l-15,49.6
				C171.7,369.2,169.4,370.8,165.9,370.8z M273.2,302.1l-40.2-133.2l-41.2,133.2H273.2z"/>
			<path class="st7" d="M359,154.5c3.1,0,5.8,1.1,8.1,3.3c2.3,2.2,3.4,4.7,3.4,7.6c0,3.1-1.1,5.8-3.4,8.1c-2.3,2.3-5,3.4-8.1,3.4
				c-3.5,0-6.4-1.1-8.6-3.4c-2.2-2.3-3.3-5-3.3-8.1c0-2.9,1.1-5.5,3.3-7.6S355.5,154.5,359,154.5z M359,223.5c2.3,0,4.2,0.6,5.6,1.7
				c1.5,1.1,2.2,2.7,2.2,4.5v134.2c0,1.7-0.7,3.2-2.2,4.7c-1.5,1.5-3.3,2.2-5.6,2.2c-2.3,0-4.1-0.7-5.5-2.2c-1.4-1.5-2-3-2-4.7
				V229.7c0-1.9,0.7-3.4,2-4.5C354.9,224.1,356.7,223.5,359,223.5z"/>
		</g>
	</g>
	<g>
		<path class="st8" d="M165.9,370.8c-2.1,0-4.1-0.6-5.9-1.7c-1.9-1.1-2.8-2.9-2.8-5.1c0-0.8,0.1-1.5,0.3-1.9l66.8-215.6
			c1.2-3.7,4.2-5.6,8.7-5.6c1.9,0,3.6,0.5,5.3,1.4c1.7,0.9,2.8,2.3,3.4,4.2L307.8,362c0,0.4,0,0.7,0.2,0.9c0.1,0.2,0.2,0.5,0.2,0.9
			c0,1.9-0.9,3.5-2.8,4.8c-1.9,1.4-4,2-6.2,2c-3.3,0-5.4-1.6-6.2-4.7l-15.3-49.6h-89.9l-15,49.6
			C171.7,369.2,169.4,370.8,165.9,370.8z M273.2,302.1l-40.2-133.2l-41.2,133.2H273.2z"/>
		<path class="st8" d="M359,154.5c3.1,0,5.8,1.1,8.1,3.3c2.3,2.2,3.4,4.7,3.4,7.6c0,3.1-1.1,5.8-3.4,8.1c-2.3,2.3-5,3.4-8.1,3.4
			c-3.5,0-6.4-1.1-8.6-3.4c-2.2-2.3-3.3-5-3.3-8.1c0-2.9,1.1-5.5,3.3-7.6S355.5,154.5,359,154.5z M359,223.5c2.3,0,4.2,0.6,5.6,1.7
			c1.5,1.1,2.2,2.7,2.2,4.5v134.2c0,1.7-0.7,3.2-2.2,4.7c-1.5,1.5-3.3,2.2-5.6,2.2c-2.3,0-4.1-0.7-5.5-2.2c-1.4-1.5-2-3-2-4.7V229.7
			c0-1.9,0.7-3.4,2-4.5C354.9,224.1,356.7,223.5,359,223.5z"/>
	</g>
	<g>
		<path class="st9" d="M165.9,370.8c-2.1,0-4.1-0.6-5.9-1.7c-1.9-1.1-2.8-2.9-2.8-5.1c0-0.8,0.1-1.5,0.3-1.9l66.8-215.6
			c1.2-3.7,4.2-5.6,8.7-5.6c1.9,0,3.6,0.5,5.3,1.4c1.7,0.9,2.8,2.3,3.4,4.2L307.8,362c0,0.4,0,0.7,0.2,0.9c0.1,0.2,0.2,0.5,0.2,0.9
			c0,1.9-0.9,3.5-2.8,4.8c-1.9,1.4-4,2-6.2,2c-3.3,0-5.4-1.6-6.2-4.7l-15.3-49.6h-89.9l-15,49.6
			C171.7,369.2,169.4,370.8,165.9,370.8z M273.2,302.1l-40.2-133.2l-41.2,133.2H273.2z"/>
		<path class="st9" d="M359,154.5c3.1,0,5.8,1.1,8.1,3.3c2.3,2.2,3.4,4.7,3.4,7.6c0,3.1-1.1,5.8-3.4,8.1c-2.3,2.3-5,3.4-8.1,3.4
			c-3.5,0-6.4-1.1-8.6-3.4c-2.2-2.3-3.3-5-3.3-8.1c0-2.9,1.1-5.5,3.3-7.6S355.5,154.5,359,154.5z M359,223.5c2.3,0,4.2,0.6,5.6,1.7
			c1.5,1.1,2.2,2.7,2.2,4.5v134.2c0,1.7-0.7,3.2-2.2,4.7c-1.5,1.5-3.3,2.2-5.6,2.2c-2.3,0-4.1-0.7-5.5-2.2c-1.4-1.5-2-3-2-4.7V229.7
			c0-1.9,0.7-3.4,2-4.5C354.9,224.1,356.7,223.5,359,223.5z"/>
	</g>
</g>
<path class="st0" d="M238.9,507.1C116,492.8,20.6,388.4,20.6,261.7c0-136.4,110.6-247,247-247s247,110.6,247,247s-110.6,247-247,247
	C257.9,508.7,248.3,508.2,238.9,507.1"/>
<path class="st10" d="M445.6,432.6c42.1-45,67.9-106.2,67.9-172.1c0-136.4-110.6-247-247-247"/>
<g class="st11">
	<g class="st12">
		<g>
			<path class="st13" d="M156.6,154.2c0-3.9,2.4-6.1,7.2-6.6h56.2c8.7,0,17,1.2,24.6,3.6c7.7,2.4,14.4,6.1,20,11.2
				c5.6,5.1,10,11.8,13.3,20.1c3.2,8.3,4.8,18.4,4.8,30.3v3.4c0,11.9-1.6,21.9-4.8,30.3c-3.2,8.3-7.7,15.1-13.4,20.3
				c-5.7,5.2-12.4,9-20.1,11.4c-7.7,2.4-15.9,3.6-24.6,3.6h-47.4v87c0,2.3-0.8,4-2.3,5.1c-1.6,1.1-3.4,1.7-5.5,1.7
				c-1.9,0-3.6-0.6-5.3-1.7c-1.7-1.1-2.5-2.9-2.5-5.1V154.2z M172.2,162.7v104.8h47.4c15,0,26.6-4.1,34.9-12.3
				c8.3-8.2,12.5-21.1,12.5-38.5v-3.4c0-17.5-4.2-30.3-12.5-38.4c-8.3-8.1-20-12.2-34.9-12.2H172.2z"/>
			<path class="st13" d="M367.5,363.9c12.5,0,21.3-2.4,26.5-7.2c5.2-4.8,7.8-10.4,7.8-16.8c0-7.5-1.9-13.3-5.8-17.5
				c-3.9-4.2-8.6-7.4-14.4-9.8c-5.7-2.4-12-4.5-18.7-6.2c-6.8-1.8-13-4.1-18.7-6.9c-5.7-2.8-10.5-6.6-14.4-11.4
				c-3.9-4.8-5.8-11.5-5.8-20.3c0-4.8,0.9-9.6,2.7-14.5c1.8-4.9,4.6-9.3,8.4-13.3c3.8-3.9,8.7-7.2,14.7-9.7
				c5.9-2.5,13.2-3.7,21.7-3.7c4.8,0,9.6,0.4,14.4,1.2c4.8,0.8,9,1.9,12.8,3.3c3.7,1.4,6.8,2.9,9.2,4.5c2.4,1.7,3.6,3.3,3.6,5
				c0,1.5-0.7,3.2-2,5.1c-1.4,2-3,3-4.8,3c-1,0-2.5-0.4-4.4-1.2c-1.9-0.8-4.1-1.8-6.7-3c-2.6-1.1-5.7-2.1-9.4-3
				c-3.6-0.8-7.8-1.2-12.3-1.2c-6.2,0-11.4,0.9-15.6,2.7c-4.2,1.8-7.6,4-10.3,6.6c-2.7,2.6-4.6,5.5-5.8,8.7
				c-1.1,3.2-1.7,6.3-1.7,9.2c0,6.5,1.9,11.4,5.8,14.8c3.8,3.4,8.7,6.2,14.5,8.3c5.8,2.1,12.1,4,18.7,5.8c6.7,1.8,12.9,4.2,18.7,7.3
				c5.8,3.1,10.7,7.4,14.5,12.8c3.8,5.4,5.8,12.9,5.8,22.5c0,12.1-4.2,21.5-12.6,28.4s-20.4,10.3-36,10.3c-7.3,0-13.8-0.7-19.5-2.2
				c-5.7-1.5-10.7-3.2-14.8-5.3c-4.2-2.1-7.3-4.4-9.5-6.9c-2.2-2.5-3.3-4.8-3.3-6.9c0-1.7,0.6-3.3,1.7-4.8c1.1-1.6,2.4-2.3,3.9-2.3
				c1.5,0,3.1,0.8,5,2.3c1.9,1.6,4.3,3.2,7.2,5c2.9,1.8,6.7,3.4,11.2,5C354.3,363.1,360.2,363.9,367.5,363.9z"/>
		</g>
		<g>
			<path class="st13" d="M147.6,147.2c0-3.9,2.4-6.1,7.2-6.6h56.2c8.7,0,17,1.2,24.6,3.6c7.7,2.4,14.4,6.1,20,11.2
				c5.6,5.1,10,11.8,13.3,20.1c3.2,8.3,4.8,18.4,4.8,30.3v3.4c0,11.9-1.6,21.9-4.8,30.3c-3.2,8.3-7.7,15.1-13.4,20.3
				c-5.7,5.2-12.4,9-20.1,11.4c-7.7,2.4-15.9,3.6-24.6,3.6h-47.4v87c0,2.3-0.8,4-2.3,5.1c-1.6,1.1-3.4,1.7-5.5,1.7
				c-1.9,0-3.6-0.6-5.3-1.7c-1.7-1.1-2.5-2.9-2.5-5.1V147.2z M163.2,155.7v104.8h47.4c15,0,26.6-4.1,34.9-12.3
				c8.3-8.2,12.5-21.1,12.5-38.5v-3.4c0-17.5-4.2-30.3-12.5-38.4c-8.3-8.1-20-12.2-34.9-12.2H163.2z"/>
			<path class="st13" d="M358.5,356.9c12.5,0,21.3-2.4,26.5-7.2c5.2-4.8,7.8-10.4,7.8-16.8c0-7.5-1.9-13.3-5.8-17.5
				c-3.9-4.2-8.6-7.4-14.4-9.8c-5.7-2.4-12-4.5-18.7-6.2c-6.8-1.8-13-4.1-18.7-6.9c-5.7-2.8-10.5-6.6-14.4-11.4
				c-3.9-4.8-5.8-11.5-5.8-20.3c0-4.8,0.9-9.6,2.7-14.5c1.8-4.9,4.6-9.3,8.4-13.3c3.8-3.9,8.7-7.2,14.7-9.7
				c5.9-2.5,13.2-3.7,21.7-3.7c4.8,0,9.6,0.4,14.4,1.2c4.8,0.8,9,1.9,12.8,3.3c3.7,1.4,6.8,2.9,9.2,4.5c2.4,1.7,3.6,3.3,3.6,5
				c0,1.5-0.7,3.2-2,5.1c-1.4,2-3,3-4.8,3c-1,0-2.5-0.4-4.4-1.2c-1.9-0.8-4.1-1.8-6.7-3c-2.6-1.1-5.7-2.1-9.4-3
				c-3.6-0.8-7.8-1.2-12.3-1.2c-6.2,0-11.4,0.9-15.6,2.7c-4.2,1.8-7.6,4-10.3,6.6c-2.7,2.6-4.6,5.5-5.8,8.7
				c-1.1,3.2-1.7,6.3-1.7,9.2c0,6.5,1.9,11.4,5.8,14.8c3.8,3.4,8.7,6.2,14.5,8.3c5.8,2.1,12.1,4,18.7,5.8c6.7,1.8,12.9,4.2,18.7,7.3
				c5.8,3.1,10.7,7.4,14.5,12.8c3.8,5.4,5.8,12.9,5.8,22.5c0,12.1-4.2,21.5-12.6,28.4s-20.4,10.3-36,10.3c-7.3,0-13.8-0.7-19.5-2.2
				c-5.7-1.5-10.7-3.2-14.8-5.3c-4.2-2.1-7.3-4.4-9.5-6.9c-2.2-2.5-3.3-4.8-3.3-6.9c0-1.7,0.6-3.3,1.7-4.8c1.1-1.6,2.4-2.3,3.9-2.3
				c1.5,0,3.1,0.8,5,2.3c1.9,1.6,4.3,3.2,7.2,5c2.9,1.8,6.7,3.4,11.2,5C345.3,356.1,351.2,356.9,358.5,356.9z"/>
		</g>
	</g>
	<g class="st12">
		<path class="st8" d="M147.6,147.2c0-3.9,2.4-6.1,7.2-6.6h56.2c8.7,0,17,1.2,24.6,3.6c7.7,2.4,14.4,6.1,20,11.2
			c5.6,5.1,10,11.8,13.3,20.1c3.2,8.3,4.8,18.4,4.8,30.3v3.4c0,11.9-1.6,21.9-4.8,30.3c-3.2,8.3-7.7,15.1-13.4,20.3
			c-5.7,5.2-12.4,9-20.1,11.4c-7.7,2.4-15.9,3.6-24.6,3.6h-47.4v87c0,2.3-0.8,4-2.3,5.1c-1.6,1.1-3.4,1.7-5.5,1.7
			c-1.9,0-3.6-0.6-5.3-1.7c-1.7-1.1-2.5-2.9-2.5-5.1V147.2z M163.2,155.7v104.8h47.4c15,0,26.6-4.1,34.9-12.3
			c8.3-8.2,12.5-21.1,12.5-38.5v-3.4c0-17.5-4.2-30.3-12.5-38.4c-8.3-8.1-20-12.2-34.9-12.2H163.2z"/>
		<path class="st8" d="M358.5,356.9c12.5,0,21.3-2.4,26.5-7.2c5.2-4.8,7.8-10.4,7.8-16.8c0-7.5-1.9-13.3-5.8-17.5
			c-3.9-4.2-8.6-7.4-14.4-9.8c-5.7-2.4-12-4.5-18.7-6.2c-6.8-1.8-13-4.1-18.7-6.9c-5.7-2.8-10.5-6.6-14.4-11.4
			c-3.9-4.8-5.8-11.5-5.8-20.3c0-4.8,0.9-9.6,2.7-14.5c1.8-4.9,4.6-9.3,8.4-13.3c3.8-3.9,8.7-7.2,14.7-9.7
			c5.9-2.5,13.2-3.7,21.7-3.7c4.8,0,9.6,0.4,14.4,1.2c4.8,0.8,9,1.9,12.8,3.3c3.7,1.4,6.8,2.9,9.2,4.5c2.4,1.7,3.6,3.3,3.6,5
			c0,1.5-0.7,3.2-2,5.1c-1.4,2-3,3-4.8,3c-1,0-2.5-0.4-4.4-1.2c-1.9-0.8-4.1-1.8-6.7-3c-2.6-1.1-5.7-2.1-9.4-3
			c-3.6-0.8-7.8-1.2-12.3-1.2c-6.2,0-11.4,0.9-15.6,2.7c-4.2,1.8-7.6,4-10.3,6.6c-2.7,2.6-4.6,5.5-5.8,8.7c-1.1,3.2-1.7,6.3-1.7,9.2
			c0,6.5,1.9,11.4,5.8,14.8c3.8,3.4,8.7,6.2,14.5,8.3c5.8,2.1,12.1,4,18.7,5.8c6.7,1.8,12.9,4.2,18.7,7.3
			c5.8,3.1,10.7,7.4,14.5,12.8c3.8,5.4,5.8,12.9,5.8,22.5c0,12.1-4.2,21.5-12.6,28.4s-20.4,10.3-36,10.3c-7.3,0-13.8-0.7-19.5-2.2
			c-5.7-1.5-10.7-3.2-14.8-5.3c-4.2-2.1-7.3-4.4-9.5-6.9c-2.2-2.5-3.3-4.8-3.3-6.9c0-1.7,0.6-3.3,1.7-4.8c1.1-1.6,2.4-2.3,3.9-2.3
			c1.5,0,3.1,0.8,5,2.3c1.9,1.6,4.3,3.2,7.2,5c2.9,1.8,6.7,3.4,11.2,5C345.3,356.1,351.2,356.9,358.5,356.9z"/>
	</g>
</g>
</svg>
