<?xml version="1.0" encoding="utf-8"?>
<!-- Generator: Adobe Illustrator 22.0.2, SVG Export Plug-In . SVG Version: 6.00 Build 0)  -->
<svg version="1.1" id="レイヤー_1" xmlns="http://www.w3.org/2000/svg" xmlns:xlink="http://www.w3.org/1999/xlink" x="0px"
	 y="0px" viewBox="0 0 530.5 521.5" style="enable-background:new 0 0 530.5 521.5;" xml:space="preserve">
<style type="text/css">
	.st0{fill:none;stroke:#D1D1D1;stroke-width:7;stroke-miterlimit:10;}
	.st1{fill:none;stroke:#5A91B7;stroke-width:11;stroke-linecap:round;stroke-miterlimit:10;}
	.st2{fill:#276182;}
	.st3{fill:#5A91B7;}
</style>
<path class="st0" d="M237.3,505.8C114.4,491.6,19,387.2,19,260.5c0-136.4,110.6-247,247-247s247,110.6,247,247s-110.6,247-247,247
	C256.3,507.5,246.7,506.9,237.3,505.8"/>
<path class="st1" d="M280,507.7c131.2-0.8,236-114.5,236-247.2c0-136.4-110.6-247-247-247"/>
<g>
	<g>
		<path class="st2" d="M206,221.6c-0.2-2.8-0.8-6.1-1.8-9.8c-1-3.7-2.8-7.1-5.5-10.4c-2.7-3.3-6.4-6-11.3-8.1
			c-4.8-2.2-11.1-3.3-18.8-3.3c-12.5,0-22,3.3-28.6,9.8c-6.6,6.5-9.9,16.8-9.9,30.8v79.3c0,14.2,3.3,24.5,9.9,30.9
			c6.6,6.4,16.4,9.6,29.4,9.6c7.8,0,14-1.1,18.6-3.3c4.6-2.2,8.1-4.8,10.6-8c2.5-3.2,4.2-6.6,5.1-10.3c0.9-3.7,1.6-7.1,2.1-10.3
			c0.2-1.5,0.7-2.8,1.5-3.8c0.8-1,2.3-1.5,4.5-1.5c2.2,0,3.8,0.5,4.9,1.6c1.1,1.1,1.6,3.4,1.6,6.9c0,5.2-1.1,10.2-3.4,15.1
			c-2.3,4.9-5.5,9.3-9.8,13s-9.5,6.8-15.8,9s-13.5,3.4-21.6,3.4c-6.8,0-13.3-1-19.4-2.9c-6.1-1.9-11.4-5-16-9.1
			c-4.6-4.2-8.2-9.6-10.9-16.3c-2.7-6.7-4-14.8-4-24.3v-79.3c0-9.5,1.4-17.6,4.1-24.3c2.8-6.7,6.4-12.1,11-16.3
			c4.6-4.2,10-7.2,16.1-9.1c6.2-1.9,12.8-2.9,19.8-2.9c8,0,15.1,1.1,21.4,3.4s11.5,5.3,15.6,9c4.2,3.8,7.3,8.1,9.5,13
			c2.2,4.9,3.3,10,3.3,15.1c0,3.3-0.5,5.5-1.6,6.6c-1.1,1.1-2.6,1.6-4.6,1.6c-2.5,0-4.2-0.5-5-1.6C206.4,224.1,206,222.9,206,221.6z
			"/>
		<path class="st2" d="M338,169.3c1.8,0,3.3,0.5,4.4,1.5c1.1,1,1.6,2.3,1.6,3.8v180.8c0,1.3-0.5,2.6-1.6,3.8
			c-1.1,1.2-2.5,1.8-4.4,1.8c-1.7,0-3.1-0.6-4.3-1.8c-1.2-1.2-1.8-2.4-1.8-3.8v-12c-2.8,5.2-7.3,9.6-13.4,13.4
			c-6.1,3.8-13,5.6-20.6,5.6c-6,0-11.7-1.3-17-3.9c-5.3-2.6-10-6-14.1-10.3c-4.1-4.3-7.3-9.2-9.8-14.8c-2.4-5.6-3.6-11.4-3.6-17.4
			v-29c0-6.3,1.2-12.3,3.6-17.9c2.4-5.6,5.7-10.4,9.8-14.5c4.1-4.1,8.8-7.3,14.3-9.8c5.4-2.4,11.2-3.6,17.4-3.6
			c8.3,0,15.3,2,20.8,5.9c5.5,3.9,9.7,8.3,12.5,13.1v-85.8c0-1.5,0.6-2.8,1.8-3.8C334.7,169.8,336.2,169.3,338,169.3z M265.8,316.1
			c0,4.5,0.9,8.8,2.6,13c1.8,4.2,4.2,7.9,7.3,11.1c3.1,3.3,6.6,5.8,10.6,7.8c4,1.9,8.3,2.9,12.8,2.9c4.7,0,9-1,13-3
			s7.5-4.4,10.4-7.1c2.9-2.8,5.2-5.6,6.9-8.6c1.7-3,2.5-5.5,2.5-7.5v-37.5c0-5.3-1-10.1-2.9-14.4c-1.9-4.3-4.4-7.8-7.4-10.8
			c-3-2.9-6.5-5.2-10.4-6.8c-3.9-1.6-7.9-2.4-11.9-2.4c-4.7,0-9,1-13.1,2.9c-4.1,1.9-7.6,4.5-10.6,7.8s-5.4,6.9-7.1,11
			c-1.8,4.1-2.6,8.3-2.6,12.6V316.1z"/>
		<path class="st2" d="M435.5,252.8c-4.3,0-8.5,0.8-12.5,2.5c-4,1.7-7.6,4.1-10.8,7.3c-3.2,3.2-5.7,7-7.6,11.5
			c-1.9,4.5-2.9,9.6-2.9,15.3v66c0,1.3-0.6,2.6-1.8,3.8c-1.2,1.2-2.7,1.8-4.5,1.8c-1.8,0-3.3-0.6-4.4-1.8c-1.1-1.2-1.6-2.4-1.6-3.8
			V247.8c0-1.5,0.5-2.7,1.6-3.6c1.1-0.9,2.5-1.4,4.4-1.4c1.7,0,3.1,0.5,4.3,1.4c1.2,0.9,1.8,2.1,1.8,3.6v12.8
			c2.8-4.8,7.1-9.3,12.8-13.3c5.7-4,12.8-6,21.3-6h9c1.5,0,2.8,0.5,3.9,1.6c1.1,1.1,1.6,2.5,1.6,4.1c0,1.7-0.5,3-1.6,4.1
			c-1.1,1.1-2.4,1.6-3.9,1.6H435.5z"/>
	</g>
	<g>
		<path class="st3" d="M197.8,216.4c-0.2-2.8-0.8-6.1-1.8-9.8c-1-3.7-2.8-7.1-5.5-10.4c-2.7-3.3-6.4-6-11.3-8.1
			c-4.8-2.2-11.1-3.3-18.8-3.3c-12.5,0-22,3.3-28.6,9.8c-6.6,6.5-9.9,16.8-9.9,30.8v79.2c0,14.2,3.3,24.5,9.9,30.9
			c6.6,6.4,16.4,9.6,29.4,9.6c7.8,0,14-1.1,18.6-3.3c4.6-2.2,8.1-4.8,10.6-8c2.5-3.2,4.2-6.6,5.1-10.3c0.9-3.7,1.6-7.1,2.1-10.3
			c0.2-1.5,0.7-2.8,1.5-3.8c0.8-1,2.3-1.5,4.5-1.5c2.2,0,3.8,0.5,4.9,1.6c1.1,1.1,1.6,3.4,1.6,6.9c0,5.2-1.1,10.2-3.4,15.1
			c-2.3,4.9-5.5,9.3-9.8,13s-9.5,6.8-15.8,9s-13.5,3.4-21.6,3.4c-6.8,0-13.3-1-19.4-2.9c-6.1-1.9-11.4-5-16-9.1
			c-4.6-4.2-8.2-9.6-10.9-16.3c-2.7-6.7-4-14.8-4-24.3v-79.2c0-9.5,1.4-17.6,4.1-24.3c2.8-6.7,6.4-12.1,11-16.3
			c4.6-4.2,10-7.2,16.1-9.1c6.2-1.9,12.8-2.9,19.8-2.9c8,0,15.1,1.1,21.4,3.4s11.5,5.3,15.6,9c4.2,3.8,7.3,8.1,9.5,13
			c2.2,4.9,3.3,10,3.3,15.1c0,3.3-0.5,5.5-1.6,6.6c-1.1,1.1-2.6,1.6-4.6,1.6c-2.5,0-4.2-0.5-5-1.6
			C198.2,219,197.8,217.8,197.8,216.4z"/>
		<path class="st3" d="M329.8,164.2c1.8,0,3.3,0.5,4.4,1.5c1.1,1,1.6,2.3,1.6,3.8v180.7c0,1.3-0.5,2.6-1.6,3.8
			c-1.1,1.2-2.5,1.8-4.4,1.8c-1.7,0-3.1-0.6-4.3-1.8c-1.2-1.2-1.8-2.4-1.8-3.8v-12c-2.8,5.2-7.3,9.6-13.4,13.4
			c-6.1,3.8-13,5.6-20.6,5.6c-6,0-11.7-1.3-17-3.9c-5.3-2.6-10-6-14.1-10.3c-4.1-4.3-7.3-9.2-9.7-14.8c-2.4-5.6-3.6-11.4-3.6-17.4
			v-29c0-6.3,1.2-12.3,3.6-17.9c2.4-5.6,5.7-10.4,9.7-14.5c4.1-4.1,8.8-7.3,14.3-9.8c5.4-2.4,11.2-3.6,17.4-3.6
			c8.3,0,15.3,2,20.8,5.9c5.5,3.9,9.7,8.3,12.5,13.1v-85.8c0-1.5,0.6-2.8,1.8-3.8C326.5,164.7,328,164.2,329.8,164.2z M257.6,310.9
			c0,4.5,0.9,8.8,2.6,13c1.8,4.2,4.2,7.9,7.3,11.1c3.1,3.3,6.6,5.8,10.6,7.8c4,1.9,8.3,2.9,12.8,2.9c4.7,0,9-1,13-3
			s7.5-4.4,10.4-7.1c2.9-2.8,5.2-5.6,6.9-8.6c1.7-3,2.5-5.5,2.5-7.5v-37.5c0-5.3-1-10.1-2.9-14.4c-1.9-4.3-4.4-7.8-7.4-10.8
			c-3-2.9-6.5-5.2-10.4-6.7c-3.9-1.6-7.9-2.4-11.9-2.4c-4.7,0-9,1-13.1,2.9c-4.1,1.9-7.6,4.5-10.6,7.7c-3,3.3-5.4,6.9-7.1,11
			c-1.8,4.1-2.6,8.3-2.6,12.6V310.9z"/>
		<path class="st3" d="M427.3,247.7c-4.3,0-8.5,0.8-12.5,2.5c-4,1.7-7.6,4.1-10.8,7.2c-3.2,3.2-5.7,7-7.6,11.5
			c-1.9,4.5-2.9,9.6-2.9,15.3v66c0,1.3-0.6,2.6-1.8,3.8c-1.2,1.2-2.7,1.8-4.5,1.8c-1.8,0-3.3-0.6-4.4-1.8c-1.1-1.2-1.6-2.4-1.6-3.8
			V242.7c0-1.5,0.5-2.7,1.6-3.6c1.1-0.9,2.5-1.4,4.4-1.4c1.7,0,3.1,0.5,4.3,1.4c1.2,0.9,1.8,2.1,1.8,3.6v12.8
			c2.8-4.8,7.1-9.3,12.8-13.3c5.7-4,12.8-6,21.3-6h9c1.5,0,2.8,0.5,3.9,1.6c1.1,1.1,1.6,2.5,1.6,4.1c0,1.7-0.5,3-1.6,4.1
			c-1.1,1.1-2.4,1.6-3.9,1.6H427.3z"/>
	</g>
</g>
</svg>
