<?xml version="1.0" encoding="utf-8"?>
<!-- Generator: Adobe Illustrator 22.0.2, SVG Export Plug-In . SVG Version: 6.00 Build 0)  -->
<svg version="1.1" id="レイヤー_1" xmlns="http://www.w3.org/2000/svg" xmlns:xlink="http://www.w3.org/1999/xlink" x="0px"
	 y="0px" viewBox="0 0 512 512" style="enable-background:new 0 0 512 512;" xml:space="preserve">
<style type="text/css">
	.st0{fill:url(#SVGID_1_);}
	.st1{opacity:8.000000e-02;enable-background:new    ;}
	.st2{fill:#FFFFFF;}
</style>
<g>
	
		<linearGradient id="SVGID_1_" gradientUnits="userSpaceOnUse" x1="513.125" y1="512.675" x2="1.175" y2="0.725" gradientTransform="matrix(1 0 0 -1 0 512)">
		<stop  offset="0" style="stop-color:#FFFFFF"/>
		<stop  offset="0" style="stop-color:#FFFECF"/>
		<stop  offset="0" style="stop-color:#FFFB7D"/>
		<stop  offset="0.3701" style="stop-color:#BDFDC1"/>
		<stop  offset="0.6641" style="stop-color:#85FFFA"/>
		<stop  offset="1" style="stop-color:#477CE9"/>
	</linearGradient>
	<path class="st0" d="M1.3-0.8v512.2H513V-0.8H1.3z M180.3,198.4c-1.9,1.4-4.1,1.7-6.4,1.1c-0.6-0.2-0.4-1.1,0.3-1
		c1.8,0.5,3.5,0.3,5.1-0.6c-0.8-0.8-1.6-1.8-2.9-1.7c-0.3,0-0.5-0.2-0.5-0.5v-5.2c-0.2,0-0.4-0.2-0.3-0.5c0.1-1.2,0.2-2.3,0.3-3.5
		V179c0-0.2,0.2-0.4,0.4-0.5c0.1-0.4,0.9-0.5,1,0l0,0c0.3-1.5,0.6-2.9,1-4.3c0.2-0.6,0.9-0.4,1,0.1c0.3,2.5,0.5,5.1,0.4,7.6
		c0.1,0,0.2-0.1,0.3-0.1c0.6-0.2,0.9,0.7,0.3,1c-0.2,0.1-0.4,0.2-0.6,0.3c-0.1,2.3-0.3,4.7-0.8,7c-0.1,0.5-0.9,0.5-1,0
		c-0.1-0.6-0.2-1.1-0.3-1.7c-0.3,0.1-0.6,0-0.7-0.3V188v4.1c0,0.7-0.3,2.3,0.1,2.9c0.2,0.3,0.5,0.1,0.9,0.3c1,0.6,1.7,1.6,2.6,2.4
		C180.6,197.9,180.5,198.3,180.3,198.4z"/>
</g>
<rect x="-4.5" y="-3.5" class="st1" width="521" height="519"/>
<g>
	<path class="st2" d="M123.9,118.4h59.9l52.8,134.5c6.6,17.5,12.6,36,19.2,54h1.8c6.6-18,12.2-36.5,18.8-54l51.7-134.5H388v275.3
		h-48.6v-126c0-25.4,4.2-62,6.8-87.6h-1.8l-24.1,64l-49.2,123.7h-31.4l-49.3-123.7l-23.8-64h-1.8c2.6,25.5,6.8,62.1,6.8,87.6v125.9
		h-47.7L123.9,118.4L123.9,118.4z"/>
</g>
</svg>
